<svg xmlns="http://www.w3.org/2000/svg" viewBox="0 0 512 512" width="512" height="512">
  <defs>
    <linearGradient id="g" x1="0" y1="0" x2="1" y2="1">
      <stop offset="0" stop-color="#4ade80"/>
      <stop offset="1" stop-color="#16a34a"/>
    </linearGradient>
    <filter id="glow" x="-30%" y="-30%" width="160%" height="160%">
      <feGaussianBlur stdDeviation="5" result="b"/>
      <feMerge><feMergeNode in="b"/><feMergeNode in="SourceGraphic"/></feMerge>
    </filter>
  </defs>
  <rect width="512" height="512" rx="112" fill="#08140d"/>
  <rect x="6" y="6" width="500" height="500" rx="106" fill="none" stroke="url(#g)" stroke-opacity="0.25" stroke-width="4"/>
  <g filter="url(#glow)">
    <!-- crown -->
    <path d="M198 150 L212 100 L240 124 L256 76 L272 124 L300 100 L314 150 Z" fill="url(#g)"/>
    <circle cx="212" cy="92" r="17" fill="url(#g)"/>
    <circle cx="256" cy="68" r="20" fill="url(#g)"/>
    <circle cx="300" cy="92" r="17" fill="url(#g)"/>
    <!-- stem -->
    <path d="M256 150 V 338" fill="none" stroke="url(#g)" stroke-width="26" stroke-linecap="round"/>
    <!-- leaves -->
    <path d="M256 292 C 200 286 164 250 158 196 C 216 202 252 244 256 292 Z" fill="url(#g)"/>
    <path d="M256 292 C 312 286 348 250 354 196 C 296 202 260 244 256 292 Z" fill="url(#g)"/>
    <!-- roots -->
    <path d="M256 338 V 460" fill="none" stroke="url(#g)" stroke-width="22" stroke-linecap="round"/>
    <path d="M256 362 C 214 392 186 418 166 458" fill="none" stroke="url(#g)" stroke-width="20" stroke-linecap="round"/>
    <path d="M256 362 C 298 392 326 418 346 458" fill="none" stroke="url(#g)" stroke-width="20" stroke-linecap="round"/>
  </g>
</svg>
