<svg xmlns="http://www.w3.org/2000/svg" viewBox="0 0 512 512" width="512" height="512">
  <defs>
    <linearGradient id="g" gradientUnits="userSpaceOnUse" x1="0" y1="0" x2="512" y2="512">
      <stop offset="0" stop-color="#4ade80"/>
      <stop offset="1" stop-color="#16a34a"/>
    </linearGradient>
    <filter id="glow" x="-30%" y="-30%" width="160%" height="160%">
      <feGaussianBlur stdDeviation="5" result="b"/>
      <feMerge><feMergeNode in="b"/><feMergeNode in="SourceGraphic"/></feMerge>
    </filter>
  </defs>
  <rect width="512" height="512" rx="112" fill="#08140d"/>
  <rect x="6" y="6" width="500" height="500" rx="106" fill="none" stroke="url(#g)" stroke-opacity="0.25" stroke-width="4"/>
  <g filter="url(#glow)">
    <!-- crown -->
    <path d="M198 150 L212 100 L240 124 L256 76 L272 124 L300 100 L314 150 Z" fill="url(#g)"/>
    <circle cx="212" cy="92" r="17" fill="url(#g)"/>
    <circle cx="256" cy="68" r="20" fill="url(#g)"/>
    <circle cx="300" cy="92" r="17" fill="url(#g)"/>
    <!-- stem -->
    <path d="M256 150 V 341" fill="none" stroke="url(#g)" stroke-width="26" stroke-linecap="round"/>
    <!-- leaves -->
    <path d="M256 286 C 206 282 160 258 144 204 C 196 222 232 250 256 286 Z" fill="url(#g)"/>
    <path d="M256 286 C 306 282 352 258 368 204 C 316 222 280 250 256 286 Z" fill="url(#g)"/>
    <!-- roots as a tournament bracket converging to a champion -->
    <g fill="none" stroke="url(#g)" stroke-width="24" stroke-linecap="round" stroke-linejoin="round">
      <path d="M150 345 H 362"/>
      <path d="M150 345 V 396 H 232"/>
      <path d="M362 345 V 396 H 280"/>
      <path d="M256 345 V 418"/>
      <path d="M222 456 L 256 418 L 290 456"/>
    </g>
  </g>
</svg>
